{
    "asset" : {
        "generator" : "Khronos glTF Blender I/O v1.6.16",
        "version" : "2.0"
    },
    "extensionsUsed" : [
        "N64_materials_gltf64",
        "N64_image_format",
        "N64_texture_inputs"
    ],
    "scene" : 0,
    "scenes" : [
        {
            "name" : "Scene",
            "nodes" : [
                2
            ]
        }
    ],
    "nodes" : [
        {
            "name" : "Bone"
        },
        {
            "mesh" : 0,
            "name" : "blade_Harv-E_mesh",
            "skin" : 0
        },
        {
            "children" : [
                1,
                0
            ],
            "name" : "blade_Harv-E"
        }
    ],
    "materials" : [
        {
            "extensions" : {
                "N64_materials_gltf64" : {
                    "combiner" : [
                        "TEXEL0",
                        "0",
                        "SHADE",
                        "0",
                        "0",
                        "0",
                        "0",
                        "1",
                        "TEXEL0",
                        "0",
                        "SHADE",
                        "0",
                        "0",
                        "0",
                        "0",
                        "1"
                    ],
                    "drawLayer" : "Opaque"
                }
            },
            "name" : "poleshine_f3d",
            "pbrMetallicRoughness" : {
                "baseColorTexture" : {
                    "index" : 0
                },
                "extensions" : {
                    "N64_texture_inputs" : {
                        "tex0" : {
                            "index" : 0
                        }
                    }
                },
                "metallicFactor" : 0,
                "roughnessFactor" : 0.5
            }
        },
        {
            "alphaCutoff" : 0.20000000298023224,
            "alphaMode" : "MASK",
            "extensions" : {
                "N64_materials_gltf64" : {
                    "combiner" : [
                        "TEXEL0",
                        "0",
                        "SHADE",
                        "0",
                        "SHADE",
                        "1",
                        "PRIMITIVE",
                        "1",
                        "COMBINED",
                        "PRIMITIVE",
                        "COMBINED_ALPHA",
                        "PRIMITIVE",
                        "0",
                        "0",
                        "0",
                        "TEXEL1"
                    ],
                    "primColor" : [
                        1,
                        0.11380143463611603,
                        0,
                        0.6357143521308899
                    ],
                    "drawLayer" : "Cutout",
                    "renderMode" : {
                        "zmode" : "OPA",
                        "cvgDst" : "CLAMP",
                        "flags" : [
                            "ALPHA_CVG_SEL",
                            "Z_UPD",
                            "Z_CMP",
                            "IM_RD",
                            "AA_EN"
                        ],
                        "blender" : [
                            "IN",
                            "0",
                            "IN",
                            "1",
                            "IN",
                            "IN",
                            "MEM",
                            "MEM"
                        ]
                    }
                }
            },
            "name" : "scythe_f3d",
            "pbrMetallicRoughness" : {
                "baseColorTexture" : {
                    "index" : 1
                },
                "extensions" : {
                    "N64_texture_inputs" : {
                        "tex0" : {
                            "index" : 1
                        }
                    }
                },
                "metallicFactor" : 0,
                "roughnessFactor" : 0.5
            }
        }
    ],
    "meshes" : [
        {
            "name" : "Roundcube.001",
            "primitives" : [
                {
                    "attributes" : {
                        "POSITION" : 0,
                        "NORMAL" : 1,
                        "TEXCOORD_0" : 2,
                        "COLOR_0" : 3,
                        "COLOR_1" : 4,
                        "JOINTS_0" : 5,
                        "WEIGHTS_0" : 6
                    },
                    "indices" : 7,
                    "material" : 0
                },
                {
                    "attributes" : {
                        "POSITION" : 8,
                        "NORMAL" : 9,
                        "TEXCOORD_0" : 10,
                        "COLOR_0" : 11,
                        "COLOR_1" : 12,
                        "JOINTS_0" : 13,
                        "WEIGHTS_0" : 14
                    },
                    "indices" : 15,
                    "material" : 1
                }
            ]
        }
    ],
    "textures" : [
        {
            "sampler" : 0,
            "source" : 0
        },
        {
            "sampler" : 0,
            "source" : 1
        }
    ],
    "images" : [
        {
            "extensions" : {
                "N64_image_format" : {
                    "format" : "RGBA16"
                }
            },
            "mimeType" : "image/png",
            "name" : "metalshine_I4",
            "uri" : "../images/metalshine_I4.png"
        },
        {
            "extensions" : {
                "N64_image_format" : {
                    "format" : "IA4"
                }
            },
            "mimeType" : "image/png",
            "name" : "scythe_IA4",
            "uri" : "../images/scythe_IA4.png"
        }
    ],
    "skins" : [
        {
            "inverseBindMatrices" : 16,
            "joints" : [
                0
            ],
            "name" : "blade_Harv-E"
        }
    ],
    "accessors" : [
        {
            "bufferView" : 0,
            "componentType" : 5126,
            "count" : 4,
            "max" : [
                0.4859490990638733,
                1.4200705322764406e-07,
                0.054309993982315063
            ],
            "min" : [
                -1,
                1.4200705322764406e-07,
                -0.054309993982315063
            ],
            "type" : "VEC3"
        },
        {
            "bufferView" : 1,
            "componentType" : 5126,
            "count" : 4,
            "type" : "VEC3"
        },
        {
            "bufferView" : 2,
            "componentType" : 5126,
            "count" : 4,
            "type" : "VEC2"
        },
        {
            "bufferView" : 3,
            "componentType" : 5123,
            "count" : 4,
            "normalized" : true,
            "type" : "VEC4"
        },
        {
            "bufferView" : 4,
            "componentType" : 5123,
            "count" : 4,
            "normalized" : true,
            "type" : "VEC4"
        },
        {
            "bufferView" : 5,
            "componentType" : 5121,
            "count" : 4,
            "type" : "VEC4"
        },
        {
            "bufferView" : 6,
            "componentType" : 5126,
            "count" : 4,
            "type" : "VEC4"
        },
        {
            "bufferView" : 7,
            "componentType" : 5123,
            "count" : 6,
            "type" : "SCALAR"
        },
        {
            "bufferView" : 8,
            "componentType" : 5126,
            "count" : 3,
            "max" : [
                0.891990065574646,
                0.05049876868724823,
                0.3793579339981079
            ],
            "min" : [
                -0.09017378091812134,
                0.05049876868724823,
                -1.436906337738037
            ],
            "type" : "VEC3"
        },
        {
            "bufferView" : 9,
            "componentType" : 5126,
            "count" : 3,
            "type" : "VEC3"
        },
        {
            "bufferView" : 10,
            "componentType" : 5126,
            "count" : 3,
            "type" : "VEC2"
        },
        {
            "bufferView" : 11,
            "componentType" : 5123,
            "count" : 3,
            "normalized" : true,
            "type" : "VEC4"
        },
        {
            "bufferView" : 12,
            "componentType" : 5123,
            "count" : 3,
            "normalized" : true,
            "type" : "VEC4"
        },
        {
            "bufferView" : 13,
            "componentType" : 5121,
            "count" : 3,
            "type" : "VEC4"
        },
        {
            "bufferView" : 14,
            "componentType" : 5126,
            "count" : 3,
            "type" : "VEC4"
        },
        {
            "bufferView" : 15,
            "componentType" : 5123,
            "count" : 3,
            "type" : "SCALAR"
        },
        {
            "bufferView" : 16,
            "componentType" : 5126,
            "count" : 1,
            "type" : "MAT4"
        }
    ],
    "bufferViews" : [
        {
            "buffer" : 0,
            "byteLength" : 48,
            "byteOffset" : 0
        },
        {
            "buffer" : 0,
            "byteLength" : 48,
            "byteOffset" : 48
        },
        {
            "buffer" : 0,
            "byteLength" : 32,
            "byteOffset" : 96
        },
        {
            "buffer" : 0,
            "byteLength" : 32,
            "byteOffset" : 128
        },
        {
            "buffer" : 0,
            "byteLength" : 32,
            "byteOffset" : 160
        },
        {
            "buffer" : 0,
            "byteLength" : 16,
            "byteOffset" : 192
        },
        {
            "buffer" : 0,
            "byteLength" : 64,
            "byteOffset" : 208
        },
        {
            "buffer" : 0,
            "byteLength" : 12,
            "byteOffset" : 272
        },
        {
            "buffer" : 0,
            "byteLength" : 36,
            "byteOffset" : 284
        },
        {
            "buffer" : 0,
            "byteLength" : 36,
            "byteOffset" : 320
        },
        {
            "buffer" : 0,
            "byteLength" : 24,
            "byteOffset" : 356
        },
        {
            "buffer" : 0,
            "byteLength" : 24,
            "byteOffset" : 380
        },
        {
            "buffer" : 0,
            "byteLength" : 24,
            "byteOffset" : 404
        },
        {
            "buffer" : 0,
            "byteLength" : 12,
            "byteOffset" : 428
        },
        {
            "buffer" : 0,
            "byteLength" : 48,
            "byteOffset" : 440
        },
        {
            "buffer" : 0,
            "byteLength" : 6,
            "byteOffset" : 488
        },
        {
            "buffer" : 0,
            "byteLength" : 64,
            "byteOffset" : 496
        }
    ],
    "samplers" : [
        {
            "magFilter" : 9729,
            "minFilter" : 9987,
            "wrapS" : 10497,
            "wrapT" : 10497
        }
    ],
    "buffers" : [
        {
            "byteLength" : 560,
            "uri" : "blade_Harv-E_mesh.bin"
        }
    ]
}
