{
    "asset" : {
        "generator" : "Khronos glTF Blender I/O v1.6.16",
        "version" : "2.0"
    },
    "extensionsUsed" : [
        "N64_materials_gltf64",
        "N64_texture_inputs"
    ],
    "scene" : 0,
    "scenes" : [
        {
            "name" : "Scene",
            "nodes" : [
                0
            ]
        }
    ],
    "nodes" : [
        {
            "mesh" : 0,
            "name" : "Box"
        }
    ],
    "materials" : [
        {
            "extensions" : {
                "N64_materials_gltf64" : {
                    "combiner" : [
                        "ENVIRONMENT",
                        "0",
                        "SHADE",
                        "0",
                        "0",
                        "0",
                        "0",
                        "1",
                        "ENVIRONMENT",
                        "0",
                        "SHADE",
                        "0",
                        "0",
                        "0",
                        "0",
                        "1"
                    ],
                    "envColor" : [
                        0,
                        0.10946200042963028,
                        0.10461650788784027,
                        1
                    ],
                    "drawLayer" : "Opaque"
                }
            },
            "name" : "f3dlite_material.002",
            "pbrMetallicRoughness" : {
                "extensions" : {},
                "metallicFactor" : 0,
                "roughnessFactor" : 0.5
            }
        }
    ],
    "meshes" : [
        {
            "name" : "Cube",
            "primitives" : [
                {
                    "attributes" : {
                        "POSITION" : 0,
                        "NORMAL" : 1,
                        "TEXCOORD_0" : 2
                    },
                    "indices" : 3,
                    "material" : 0
                }
            ]
        }
    ],
    "accessors" : [
        {
            "bufferView" : 0,
            "componentType" : 5126,
            "count" : 24,
            "max" : [
                0.4000000059604645,
                1.5,
                0.4000000059604645
            ],
            "min" : [
                -0.4000000059604645,
                0,
                -0.4000000059604645
            ],
            "type" : "VEC3"
        },
        {
            "bufferView" : 1,
            "componentType" : 5126,
            "count" : 24,
            "type" : "VEC3"
        },
        {
            "bufferView" : 2,
            "componentType" : 5126,
            "count" : 24,
            "type" : "VEC2"
        },
        {
            "bufferView" : 3,
            "componentType" : 5123,
            "count" : 36,
            "type" : "SCALAR"
        }
    ],
    "bufferViews" : [
        {
            "buffer" : 0,
            "byteLength" : 288,
            "byteOffset" : 0
        },
        {
            "buffer" : 0,
            "byteLength" : 288,
            "byteOffset" : 288
        },
        {
            "buffer" : 0,
            "byteLength" : 192,
            "byteOffset" : 576
        },
        {
            "buffer" : 0,
            "byteLength" : 72,
            "byteOffset" : 768
        }
    ],
    "buffers" : [
        {
            "byteLength" : 840,
            "uri" : "Box.bin"
        }
    ]
}
