{
    "asset" : {
        "generator" : "Khronos glTF Blender I/O v1.6.16",
        "version" : "2.0"
    },
    "extensionsUsed" : [
        "N64_materials_gltf64",
        "N64_texture_inputs"
    ],
    "scene" : 0,
    "scenes" : [
        {
            "name" : "Scene",
            "nodes" : [
                0
            ]
        }
    ],
    "nodes" : [
        {
            "mesh" : 0,
            "name" : "Explosion"
        }
    ],
    "materials" : [
        {
            "alphaMode" : "BLEND",
            "extensions" : {
                "N64_materials_gltf64" : {
                    "combiner" : [
                        "0",
                        "0",
                        "0",
                        "ENVIRONMENT",
                        "0",
                        "0",
                        "0",
                        "ENVIRONMENT",
                        "0",
                        "0",
                        "0",
                        "ENVIRONMENT",
                        "0",
                        "0",
                        "0",
                        "ENVIRONMENT"
                    ],
                    "envColor" : [
                        0.05582458898425102,
                        0.05582458898425102,
                        0.05582458898425102,
                        0.5
                    ],
                    "drawLayer" : "Transparent"
                }
            },
            "name" : "ExplosionMaterial",
            "pbrMetallicRoughness" : {
                "extensions" : {},
                "metallicFactor" : 0,
                "roughnessFactor" : 0.5
            }
        }
    ],
    "meshes" : [
        {
            "name" : "Sphere",
            "primitives" : [
                {
                    "attributes" : {
                        "POSITION" : 0,
                        "NORMAL" : 1,
                        "TEXCOORD_0" : 2
                    },
                    "indices" : 3,
                    "material" : 0
                }
            ]
        }
    ],
    "accessors" : [
        {
            "bufferView" : 0,
            "componentType" : 5126,
            "count" : 88,
            "max" : [
                1.0000001192092896,
                1,
                1
            ],
            "min" : [
                -0.9999998211860657,
                -4.371138828673793e-08,
                -1
            ],
            "type" : "VEC3"
        },
        {
            "bufferView" : 1,
            "componentType" : 5126,
            "count" : 88,
            "type" : "VEC3"
        },
        {
            "bufferView" : 2,
            "componentType" : 5126,
            "count" : 88,
            "type" : "VEC2"
        },
        {
            "bufferView" : 3,
            "componentType" : 5123,
            "count" : 120,
            "type" : "SCALAR"
        }
    ],
    "bufferViews" : [
        {
            "buffer" : 0,
            "byteLength" : 1056,
            "byteOffset" : 0
        },
        {
            "buffer" : 0,
            "byteLength" : 1056,
            "byteOffset" : 1056
        },
        {
            "buffer" : 0,
            "byteLength" : 704,
            "byteOffset" : 2112
        },
        {
            "buffer" : 0,
            "byteLength" : 240,
            "byteOffset" : 2816
        }
    ],
    "buffers" : [
        {
            "byteLength" : 3056,
            "uri" : "Explosion.bin"
        }
    ]
}
