{
    "asset" : {
        "generator" : "Khronos glTF Blender I/O v1.6.16",
        "version" : "2.0"
    },
    "extensionsUsed" : [
        "N64_materials_gltf64",
        "N64_image_format",
        "N64_texture_inputs"
    ],
    "scene" : 0,
    "scenes" : [
        {
            "name" : "Scene",
            "nodes" : [
                0
            ]
        }
    ],
    "nodes" : [
        {
            "mesh" : 0,
            "name" : "metalGrate",
            "translation" : [
                17,
                0,
                26
            ]
        }
    ],
    "materials" : [
        {
            "alphaCutoff" : 0.20000000298023224,
            "alphaMode" : "MASK",
            "doubleSided" : true,
            "extensions" : {
                "N64_materials_gltf64" : {
                    "combiner" : [
                        "TEXEL0",
                        "0",
                        "SHADE",
                        "0",
                        "0",
                        "0",
                        "0",
                        "TEXEL0",
                        "TEXEL0",
                        "0",
                        "SHADE",
                        "0",
                        "0",
                        "0",
                        "0",
                        "TEXEL0"
                    ],
                    "geometryMode" : 2228229,
                    "drawLayer" : "Cutout"
                }
            },
            "name" : "metalGrate_f3d",
            "pbrMetallicRoughness" : {
                "baseColorTexture" : {
                    "index" : 0
                },
                "extensions" : {
                    "N64_texture_inputs" : {
                        "tex0" : {
                            "index" : 0
                        }
                    }
                },
                "metallicFactor" : 0,
                "roughnessFactor" : 0.5
            }
        }
    ],
    "meshes" : [
        {
            "name" : "Plane.009",
            "primitives" : [
                {
                    "attributes" : {
                        "POSITION" : 0,
                        "NORMAL" : 1,
                        "TEXCOORD_0" : 2
                    },
                    "indices" : 3,
                    "material" : 0
                }
            ]
        }
    ],
    "textures" : [
        {
            "sampler" : 0,
            "source" : 0
        }
    ],
    "images" : [
        {
            "extensions" : {
                "N64_image_format" : {
                    "format" : "IA8"
                }
            },
            "mimeType" : "image/png",
            "name" : "metalGrateV2.IA8",
            "uri" : "../textures/metalGrateV2_IA8.png"
        }
    ],
    "accessors" : [
        {
            "bufferView" : 0,
            "componentType" : 5126,
            "count" : 8,
            "max" : [
                0.5,
                0,
                0.5
            ],
            "min" : [
                -0.5,
                -0.04207521677017212,
                -0.5
            ],
            "type" : "VEC3"
        },
        {
            "bufferView" : 1,
            "componentType" : 5126,
            "count" : 8,
            "type" : "VEC3"
        },
        {
            "bufferView" : 2,
            "componentType" : 5126,
            "count" : 8,
            "type" : "VEC2"
        },
        {
            "bufferView" : 3,
            "componentType" : 5123,
            "count" : 12,
            "type" : "SCALAR"
        }
    ],
    "bufferViews" : [
        {
            "buffer" : 0,
            "byteLength" : 96,
            "byteOffset" : 0
        },
        {
            "buffer" : 0,
            "byteLength" : 96,
            "byteOffset" : 96
        },
        {
            "buffer" : 0,
            "byteLength" : 64,
            "byteOffset" : 192
        },
        {
            "buffer" : 0,
            "byteLength" : 24,
            "byteOffset" : 256
        }
    ],
    "samplers" : [
        {
            "magFilter" : 9729,
            "minFilter" : 9987,
            "wrapS" : 10497,
            "wrapT" : 10497
        }
    ],
    "buffers" : [
        {
            "byteLength" : 280,
            "uri" : "metalGrate.bin"
        }
    ]
}
