{
    "asset" : {
        "generator" : "Khronos glTF Blender I/O v1.6.16",
        "version" : "2.0"
    },
    "extensionsUsed" : [
        "N64_materials_gltf64",
        "N64_texture_inputs"
    ],
    "scene" : 0,
    "scenes" : [
        {
            "name" : "Scene",
            "nodes" : [
                0
            ]
        }
    ],
    "nodes" : [
        {
            "mesh" : 0,
            "name" : "wall_Out",
            "translation" : [
                34,
                0,
                22
            ]
        }
    ],
    "materials" : [
        {
            "extensions" : {
                "N64_materials_gltf64" : {
                    "combiner" : [
                        "ENVIRONMENT",
                        "0",
                        "SHADE",
                        "0",
                        "0",
                        "0",
                        "0",
                        "1",
                        "ENVIRONMENT",
                        "0",
                        "SHADE",
                        "0",
                        "0",
                        "0",
                        "0",
                        "1"
                    ],
                    "envColor" : [
                        0.8148467540740967,
                        0.8148465752601624,
                        0.8148466348648071,
                        1
                    ],
                    "drawLayer" : "Opaque"
                }
            },
            "name" : "wallOuter_f3d",
            "pbrMetallicRoughness" : {
                "extensions" : {},
                "metallicFactor" : 0,
                "roughnessFactor" : 0.5
            }
        }
    ],
    "meshes" : [
        {
            "name" : "Plane.015",
            "primitives" : [
                {
                    "attributes" : {
                        "POSITION" : 0,
                        "NORMAL" : 1,
                        "TEXCOORD_0" : 2
                    },
                    "indices" : 3,
                    "material" : 0
                }
            ]
        }
    ],
    "accessors" : [
        {
            "bufferView" : 0,
            "componentType" : 5126,
            "count" : 4,
            "max" : [
                0.5,
                1,
                0.5
            ],
            "min" : [
                -0.5,
                0,
                0.5
            ],
            "type" : "VEC3"
        },
        {
            "bufferView" : 1,
            "componentType" : 5126,
            "count" : 4,
            "type" : "VEC3"
        },
        {
            "bufferView" : 2,
            "componentType" : 5126,
            "count" : 4,
            "type" : "VEC2"
        },
        {
            "bufferView" : 3,
            "componentType" : 5123,
            "count" : 6,
            "type" : "SCALAR"
        }
    ],
    "bufferViews" : [
        {
            "buffer" : 0,
            "byteLength" : 48,
            "byteOffset" : 0
        },
        {
            "buffer" : 0,
            "byteLength" : 48,
            "byteOffset" : 48
        },
        {
            "buffer" : 0,
            "byteLength" : 32,
            "byteOffset" : 96
        },
        {
            "buffer" : 0,
            "byteLength" : 12,
            "byteOffset" : 128
        }
    ],
    "buffers" : [
        {
            "byteLength" : 140,
            "uri" : "wall_Out.bin"
        }
    ]
}
