{
    "asset" : {
        "generator" : "Khronos glTF Blender I/O v1.6.16",
        "version" : "2.0"
    },
    "extensionsUsed" : [
        "N64_materials_gltf64",
        "N64_texture_inputs"
    ],
    "scene" : 0,
    "scenes" : [
        {
            "name" : "Scene",
            "nodes" : [
                0
            ]
        }
    ],
    "nodes" : [
        {
            "mesh" : 0,
            "name" : "wallC_Out",
            "scale" : [
                1,
                1,
                -1
            ],
            "translation" : [
                40,
                0,
                25
            ]
        }
    ],
    "materials" : [
        {
            "extensions" : {
                "N64_materials_gltf64" : {
                    "combiner" : [
                        "ENVIRONMENT",
                        "0",
                        "SHADE",
                        "0",
                        "0",
                        "0",
                        "0",
                        "1",
                        "ENVIRONMENT",
                        "0",
                        "SHADE",
                        "0",
                        "0",
                        "0",
                        "0",
                        "1"
                    ],
                    "envColor" : [
                        0.8148467540740967,
                        0.8148465752601624,
                        0.8148466348648071,
                        1
                    ],
                    "drawLayer" : "Opaque"
                }
            },
            "name" : "wallOuter_f3d",
            "pbrMetallicRoughness" : {
                "extensions" : {},
                "metallicFactor" : 0,
                "roughnessFactor" : 0.5
            }
        }
    ],
    "meshes" : [
        {
            "name" : "Plane.061",
            "primitives" : [
                {
                    "attributes" : {
                        "POSITION" : 0,
                        "NORMAL" : 1,
                        "TEXCOORD_0" : 2
                    },
                    "indices" : 3,
                    "material" : 0
                }
            ]
        }
    ],
    "accessors" : [
        {
            "bufferView" : 0,
            "componentType" : 5126,
            "count" : 8,
            "max" : [
                0.5,
                1,
                0.5
            ],
            "min" : [
                -0.4999999701976776,
                0,
                -0.5000000596046448
            ],
            "type" : "VEC3"
        },
        {
            "bufferView" : 1,
            "componentType" : 5126,
            "count" : 8,
            "type" : "VEC3"
        },
        {
            "bufferView" : 2,
            "componentType" : 5126,
            "count" : 8,
            "type" : "VEC2"
        },
        {
            "bufferView" : 3,
            "componentType" : 5123,
            "count" : 12,
            "type" : "SCALAR"
        }
    ],
    "bufferViews" : [
        {
            "buffer" : 0,
            "byteLength" : 96,
            "byteOffset" : 0
        },
        {
            "buffer" : 0,
            "byteLength" : 96,
            "byteOffset" : 96
        },
        {
            "buffer" : 0,
            "byteLength" : 64,
            "byteOffset" : 192
        },
        {
            "buffer" : 0,
            "byteLength" : 24,
            "byteOffset" : 256
        }
    ],
    "buffers" : [
        {
            "byteLength" : 280,
            "uri" : "wallC_Out.bin"
        }
    ]
}
